<svg width="64" height="64" viewBox="0 0 64 64" fill="none" xmlns="http://www.w3.org/2000/svg">
<path d="M12 8C12 6.89543 12.8954 6 14 6H36C44.8366 6 52 13.1634 52 22V56C52 57.1046 51.1046 58 50 58H14C12.8954 58 12 57.1046 12 56V8Z" fill="#D9D9D9"/>
<path fill-rule="evenodd" clip-rule="evenodd" d="M31.8079 17.0903C31.9079 16.9699 32.0927 16.9698 32.1926 17.0903L33.2629 18.3833C33.3395 18.4756 33.4692 18.4992 33.5715 18.4458L33.6135 18.4175L34.9153 17.3589C35.0369 17.26 35.2178 17.2962 35.2922 17.4341L36.0901 18.9106C36.1471 19.0159 36.2695 19.0639 36.3801 19.0317L36.427 19.0122L37.9104 18.228C38.049 18.1547 38.2197 18.2257 38.2659 18.3755L38.76 19.979C38.7954 20.0937 38.9066 20.1651 39.0217 20.1548L39.0706 20.145L40.679 19.6645C40.8291 19.6198 40.9831 19.7226 40.9993 19.8784L41.1711 21.5483C41.1855 21.6843 41.3065 21.7835 41.4426 21.771L43.1135 21.6138C43.2696 21.5991 43.4007 21.7302 43.386 21.8862L43.2288 23.5571C43.2161 23.6935 43.3162 23.8154 43.4524 23.8296L45.1213 24.0005C45.2773 24.0165 45.38 24.1706 45.3352 24.3208L44.8547 25.9292C44.816 26.0603 44.8902 26.1992 45.0208 26.2397L46.6252 26.7329C46.775 26.7791 46.846 26.9508 46.7727 27.0894L46.1565 28.2515L45.9876 28.5728C45.9238 28.6939 45.9697 28.8445 46.0901 28.9097L47.5667 29.7065C47.7045 29.781 47.7406 29.9629 47.6418 30.0845L46.8118 31.103L46.5823 31.3862C46.4961 31.4926 46.512 31.6494 46.6174 31.7368L46.8958 31.9673L47.9094 32.8071C48.0301 32.9071 48.0302 33.0919 47.9094 33.1919L46.8958 34.0308L46.6174 34.2622C46.5121 34.3498 46.4958 34.5065 46.5823 34.6128L47.6418 35.9136C47.7407 36.0351 47.7043 36.2169 47.5667 36.2915L46.4075 36.9175L46.0901 37.0894C45.9697 37.1547 45.9235 37.3051 45.9876 37.4263L46.1575 37.7476L46.7727 38.9097C46.8456 39.0481 46.7747 39.2189 46.6252 39.2651L45.3694 39.6509L45.0208 39.7593C44.8901 39.8 44.8155 39.9386 44.8547 40.0698L45.3352 41.6772C45.38 41.8274 45.2773 41.9815 45.1213 41.9976L43.4524 42.1694C43.3681 42.1783 43.2973 42.2283 43.259 42.2974L42.5667 42.5034L41.7493 42.7476L43.259 42.2974C43.2356 42.3398 43.2239 42.39 43.2288 42.4419L43.2629 42.8003L43.386 44.1128C43.4003 44.2686 43.2694 44.399 43.1135 44.3843L41.4426 44.227C41.3063 44.2145 41.1852 44.3144 41.1711 44.4507L40.9993 46.1196L40.9866 46.1753C40.9503 46.2813 40.8465 46.3515 40.7346 46.3442L40.679 46.3335L39.0706 45.854C38.9392 45.815 38.8004 45.889 38.76 46.02L38.6526 46.3667L38.2659 47.6235L38.2434 47.6753C38.1873 47.7719 38.0722 47.82 37.9641 47.7915L37.9104 47.771L36.7483 47.1558L36.427 46.9858C36.3058 46.9219 36.1552 46.9677 36.0901 47.0884L35.2922 48.5649L35.26 48.6118C35.186 48.6955 35.0635 48.7196 34.9631 48.6704L34.9153 48.6401L33.6135 47.5806C33.5071 47.4941 33.3504 47.5101 33.2629 47.6157L32.1926 48.9077L32.1516 48.9478C32.0627 49.0154 31.9377 49.0154 31.8489 48.9478L31.8079 48.9077L30.7376 47.6157C30.6501 47.5102 30.4934 47.4942 30.387 47.5806L29.0852 48.6401L29.0374 48.6704C28.9368 48.7197 28.8135 48.6959 28.7395 48.6118L28.7073 48.5649L27.9094 47.0884C27.8442 46.9677 27.6938 46.9217 27.5725 46.9858L26.0891 47.771L26.0364 47.7915C25.9281 47.82 25.8121 47.7723 25.7561 47.6753L25.7336 47.6235L25.2395 46.02C25.1991 45.8889 25.0605 45.8147 24.929 45.854L23.3215 46.3335L23.2649 46.3442C23.1532 46.3511 23.049 46.2813 23.0129 46.1753L23.0012 46.1196L22.8293 44.4507C22.8153 44.3142 22.6935 44.2142 22.5569 44.227L20.886 44.3843C20.7305 44.3985 20.5994 44.2683 20.6135 44.1128L20.7366 42.8052L20.7717 42.4419C20.783 42.3222 20.7075 42.2136 20.5969 42.1792L20.5481 42.1694L18.8782 41.9976C18.7228 41.9811 18.6198 41.8271 18.6643 41.6772L19.0403 40.4175L19.1448 40.0698C19.1791 39.9549 19.127 39.8343 19.0256 39.7788L18.9788 39.7593L17.3752 39.2651C17.2258 39.2189 17.155 39.0481 17.2278 38.9097L17.844 37.7437L18.012 37.4263C18.068 37.3203 18.0408 37.1919 17.9524 37.1177L17.9104 37.0894L16.4338 36.2915C16.2962 36.217 16.2601 36.0351 16.3586 35.9136L17.1887 34.8931L17.4172 34.6128C17.4931 34.5195 17.4911 34.3874 17.4182 34.2974L17.3831 34.2622L16.0901 33.1919C15.9698 33.0921 15.9701 32.9072 16.0901 32.8071L17.1018 31.9692L17.3831 31.7368C17.4888 31.6493 17.5039 31.4927 17.4172 31.3862L16.3586 30.0845C16.2599 29.963 16.2963 29.7812 16.4338 29.7065L17.5901 29.0815L17.9104 28.9097C18.0159 28.8527 18.0638 28.7304 18.0315 28.6196L18.012 28.5728L17.2278 27.0894C17.1545 26.9509 17.2257 26.7793 17.3752 26.7329L18.6311 26.3462L18.9788 26.2397C19.0936 26.2044 19.1649 26.0932 19.1545 25.978L19.1448 25.9292L18.6643 24.3208C18.6197 24.1709 18.7228 24.017 18.8782 24.0005L20.1838 23.8667L20.5481 23.8296C20.6676 23.8173 20.7585 23.7219 20.7708 23.6069L20.7717 23.5571L20.6135 21.8862C20.5989 21.7304 20.7303 21.5996 20.886 21.6138L22.5569 21.771C22.6764 21.7823 22.785 21.7075 22.8196 21.5972L22.8293 21.5483L23.0012 19.8784C23.0174 19.7227 23.1715 19.62 23.3215 19.6645L24.929 20.145C25.044 20.1794 25.1646 20.1264 25.22 20.0249L25.2395 19.979L25.7336 18.3755C25.7797 18.2258 25.9506 18.1551 26.0891 18.228L27.5725 19.0122C27.6787 19.0684 27.808 19.0405 27.8821 18.9517L27.9094 18.9106L28.7073 17.4341C28.7817 17.2962 28.9636 17.2601 29.0852 17.3589L30.387 18.4175C30.48 18.4932 30.6114 18.4908 30.7014 18.4185L30.7376 18.3833L31.8079 17.0903ZM32.0002 21.3247C25.5526 21.3248 20.3254 26.5521 20.3254 32.9995C20.3257 39.4467 25.5528 44.6732 32.0002 44.6733C38.4478 44.6733 43.6748 39.4468 43.6751 32.9995C43.6751 26.552 38.4479 21.3247 32.0002 21.3247Z" fill="#DE4C36"/>
<path d="M22.2344 42V39.5H24.7344V25.125H22.2344V22.625H30.3594C32.25 22.625 33.7318 22.6849 34.8047 22.8047C35.8828 22.9245 36.7214 23.112 37.3203 23.3672C37.9245 23.6172 38.4792 23.9948 38.9844 24.5C39.4375 24.9531 39.7786 25.5234 40.0078 26.2109C40.2422 26.8932 40.3594 27.625 40.3594 28.4062C40.3594 30.8385 39.1849 32.5521 36.8359 33.5469C37.6953 34.2812 38.2448 35.4323 38.4844 37C38.5104 37.1667 38.5417 37.3828 38.5781 37.6484C38.6146 37.9089 38.6432 38.112 38.6641 38.2578C38.6849 38.3984 38.7135 38.5677 38.75 38.7656C38.7865 38.9583 38.8203 39.1068 38.8516 39.2109C38.8828 39.3151 38.9219 39.4193 38.9688 39.5234C39.0156 39.6276 39.0677 39.7031 39.125 39.75C39.1875 39.7917 39.2552 39.8125 39.3281 39.8125C39.4896 39.8125 39.6276 39.7396 39.7422 39.5938C39.862 39.4479 39.9583 39.2318 40.0312 38.9453C40.1042 38.6536 40.1589 38.388 40.1953 38.1484C40.2318 37.9089 40.2734 37.5964 40.3203 37.2109C40.3307 37.1172 40.3385 37.0469 40.3438 37L42.5469 37.2266C42.4948 37.7318 42.4479 38.125 42.4062 38.4062C42.3698 38.6875 42.3073 39.0365 42.2188 39.4531C42.1302 39.8698 42.0286 40.1927 41.9141 40.4219C41.7995 40.651 41.6406 40.9062 41.4375 41.1875C41.2396 41.4635 41.0078 41.6719 40.7422 41.8125C40.4766 41.9479 40.1484 42.0651 39.7578 42.1641C39.3724 42.263 38.9349 42.3125 38.4453 42.3125C38.0911 42.3125 37.7656 42.2969 37.4688 42.2656C37.1719 42.2344 36.8958 42.1823 36.6406 42.1094C36.3906 42.0365 36.1615 41.9557 35.9531 41.8672C35.7448 41.7786 35.5495 41.6589 35.3672 41.5078C35.1849 41.3568 35.0208 41.2057 34.875 41.0547C34.7344 40.8984 34.5964 40.7031 34.4609 40.4688C34.3255 40.2344 34.2057 40.0078 34.1016 39.7891C34.0026 39.5651 33.8958 39.2943 33.7812 38.9766C33.6667 38.6536 33.5651 38.3464 33.4766 38.0547C33.388 37.763 33.2865 37.4115 33.1719 37C33.0312 36.5 32.8984 36.1068 32.7734 35.8203C32.6536 35.5286 32.5 35.276 32.3125 35.0625C32.125 34.849 31.901 34.7031 31.6406 34.625C31.3854 34.5417 31.0625 34.5 30.6719 34.5H29.7344V39.5H32.2344V42H22.2344ZM29.7344 32H30.9844C33.4844 32 34.7344 30.8542 34.7344 28.5625C34.7344 28.1667 34.7057 27.8073 34.6484 27.4844C34.5964 27.1615 34.4974 26.849 34.3516 26.5469C34.2057 26.2448 34.0182 25.9922 33.7891 25.7891C33.5599 25.5859 33.2604 25.4245 32.8906 25.3047C32.5208 25.1849 32.0938 25.125 31.6094 25.125H29.7344V32Z" fill="#DE4C36"/>
</svg>
