<svg width="64" height="64" viewBox="0 0 64 64" fill="none" xmlns="http://www.w3.org/2000/svg">
<path d="M12 8C12 6.89543 12.8954 6 14 6H36C44.8366 6 52 13.1634 52 22V56C52 57.1046 51.1046 58 50 58H14C12.8954 58 12 57.1046 12 56V8Z" fill="#D9D9D9"/>
<path d="M37.134 46.5C37.5189 47.1667 38.4811 47.1667 38.866 46.5L49.2583 28.5C49.6432 27.8333 49.1621 27 48.3923 27H27.6077C26.8379 27 26.3568 27.8333 26.7417 28.5L37.134 46.5Z" fill="url(#paint0_linear_15_25)"/>
<path d="M29.134 49.5C29.5189 50.1667 30.4811 50.1667 30.866 49.5L45.5885 24C45.9734 23.3333 45.4922 22.5 44.7224 22.5H15.2776C14.5078 22.5 14.0266 23.3333 14.4115 24L29.134 49.5Z" fill="url(#paint1_linear_15_25)"/>
<defs>
<linearGradient id="paint0_linear_15_25" x1="38" y1="20" x2="38" y2="48" gradientUnits="userSpaceOnUse">
<stop offset="0.25" stop-color="#7E6CD5"/>
<stop offset="0.918269" stop-color="#304E8F"/>
</linearGradient>
<linearGradient id="paint1_linear_15_25" x1="30" y1="13" x2="30" y2="51" gradientUnits="userSpaceOnUse">
<stop stop-color="#AA99FD"/>
<stop offset="1" stop-color="#426AC3"/>
</linearGradient>
</defs>
</svg>
