<svg width="64" height="64" viewBox="0 0 64 64" fill="none" xmlns="http://www.w3.org/2000/svg">
<g clip-path="url(#clip0_27_3)">
<rect x="7.00793" y="7.00672" width="50" height="50" rx="5" fill="#AA99FD"/>
<mask id="path-2-inside-1_27_3" fill="white">
<path d="M37.8696 35.4484C39.8173 33.491 42.9748 33.491 44.9223 35.4485L56.9993 47.5864L56.9993 52.0004C56.9992 54.7619 54.7606 57.0004 51.9992 57.0004L29.9123 57L26.6965 53.7676C24.7489 51.81 24.7489 48.6363 26.6966 46.6787L37.8696 35.4484Z"/>
</mask>
<path d="M37.8696 35.4484C39.8173 33.491 42.9748 33.491 44.9223 35.4485L56.9993 47.5864L56.9993 52.0004C56.9992 54.7619 54.7606 57.0004 51.9992 57.0004L29.9123 57L26.6965 53.7676C24.7489 51.81 24.7489 48.6363 26.6966 46.6787L37.8696 35.4484Z" fill="#BDBDBD"/>
<path d="M37.8696 35.4484L36.4519 34.0377L36.4518 34.0378L37.8696 35.4484ZM44.9223 35.4485L43.5045 36.8591L43.5046 36.8592L44.9223 35.4485ZM56.9993 47.5864L58.9993 47.5864L58.9993 46.7609L58.4171 46.1757L56.9993 47.5864ZM56.9993 52.0004L58.9993 52.0005L56.9993 52.0004ZM51.9992 57.0004L51.9992 59.0004L51.9992 57.0004ZM29.9123 57L28.4944 58.4106L29.0808 59L29.9122 59L29.9123 57ZM26.6965 53.7676L28.1144 52.357L28.1143 52.357L26.6965 53.7676ZM26.6966 46.6787L28.1144 48.0893L28.1144 48.0893L26.6966 46.6787ZM37.8696 35.4484L39.2873 36.8591C40.4532 35.6874 42.3389 35.6875 43.5045 36.8591L44.9223 35.4485L46.3401 34.0379C43.6107 31.2945 39.1814 31.2946 36.4519 34.0377L37.8696 35.4484ZM44.9223 35.4485L43.5046 36.8592L55.5816 48.997L56.9993 47.5864L58.4171 46.1757L46.3401 34.0378L44.9223 35.4485ZM56.9993 47.5864L54.9993 47.5863L54.9993 52.0004L56.9993 52.0004L58.9993 52.0005L58.9993 47.5864L56.9993 47.5864ZM56.9993 52.0004L54.9993 52.0004C54.9992 53.6573 53.6561 55.0004 51.9992 55.0004L51.9992 57.0004L51.9992 59.0004C55.8652 59.0004 58.9992 55.8665 58.9993 52.0005L56.9993 52.0004ZM51.9992 57.0004L51.9992 55.0004L29.9123 55L29.9123 57L29.9122 59L51.9992 59.0004L51.9992 57.0004ZM29.9123 57L31.3301 55.5895L28.1144 52.357L26.6965 53.7676L25.2786 55.1781L28.4944 58.4106L29.9123 57ZM26.6965 53.7676L28.1143 52.357C26.943 51.1796 26.943 49.2667 28.1144 48.0893L26.6966 46.6787L25.2788 45.2681C22.5549 48.0058 22.5548 52.4403 25.2787 55.1782L26.6965 53.7676ZM26.6966 46.6787L28.1144 48.0893L39.2874 36.859L37.8696 35.4484L36.4518 34.0378L25.2788 45.2681L26.6966 46.6787Z" fill="white" mask="url(#path-2-inside-1_27_3)"/>
<g filter="url(#filter0_d_27_3)">
<mask id="path-4-inside-2_27_3" fill="white">
<path d="M18.8516 27.9657C20.7681 25.9776 23.8756 25.9777 25.792 27.9658L53.5192 56.7299C53.034 56.8868 52.5166 56.973 51.9791 56.973L12.0074 56.9724C9.24615 56.9722 7.00748 54.7337 7.00751 51.9723L7.00768 40.2507L18.8516 27.9657Z"/>
</mask>
<path d="M18.8516 27.9657C20.7681 25.9776 23.8756 25.9777 25.792 27.9658L53.5192 56.7299C53.034 56.8868 52.5166 56.973 51.9791 56.973L12.0074 56.9724C9.24615 56.9722 7.00748 54.7337 7.00751 51.9723L7.00768 40.2507L18.8516 27.9657Z" fill="#D9D9D9"/>
<path d="M18.8516 27.9657L20.2914 29.3538L20.2915 29.3538L18.8516 27.9657ZM25.792 27.9658L24.3521 29.3538L24.3521 29.3538L25.792 27.9658ZM53.5192 56.7299L54.1347 58.6328L57.1814 57.6473L54.9591 55.3419L53.5192 56.7299ZM51.9791 56.973L51.9791 58.973V58.973L51.9791 56.973ZM12.0074 56.9724L12.0073 58.9724L12.0074 58.9724L12.0074 56.9724ZM7.00751 51.9723L9.00751 51.9724V51.9724L7.00751 51.9723ZM7.00768 40.2507L5.56786 38.8625L5.00769 39.4436L5.00768 40.2506L7.00768 40.2507ZM18.8516 27.9657L20.2915 29.3538C21.4214 28.1816 23.2222 28.1816 24.3521 29.3538L25.792 27.9658L27.232 26.5778C24.529 23.7737 20.1148 23.7736 17.4117 26.5776L18.8516 27.9657ZM25.792 27.9658L24.3521 29.3538L52.0792 58.1179L53.5192 56.7299L54.9591 55.3419L27.232 26.5778L25.792 27.9658ZM53.5192 56.7299L52.9036 54.827C52.6113 54.9215 52.3014 54.973 51.9792 54.973L51.9791 56.973L51.9791 58.973C52.7318 58.973 53.4566 58.8522 54.1347 58.6328L53.5192 56.7299ZM51.9791 56.973L51.9792 54.973L12.0075 54.9724L12.0074 56.9724L12.0074 58.9724L51.9791 58.973L51.9791 56.973ZM12.0074 56.9724L12.0076 54.9724C10.3507 54.9723 9.00749 53.629 9.00751 51.9724L7.00751 51.9723L5.00751 51.9723C5.00746 55.8383 8.14163 58.9722 12.0073 58.9724L12.0074 56.9724ZM7.00751 51.9723L9.00751 51.9724L9.00768 40.2507L7.00768 40.2507L5.00768 40.2506L5.00751 51.9723L7.00751 51.9723ZM7.00768 40.2507L8.4475 41.6388L20.2914 29.3538L18.8516 27.9657L17.4118 26.5776L5.56786 38.8625L7.00768 40.2507Z" fill="white" mask="url(#path-4-inside-2_27_3)"/>
</g>
<ellipse cx="44.4957" cy="17.0037" rx="6.24807" ry="6.24806" fill="white"/>
<rect x="8.00792" y="8.00673" width="48" height="48" rx="4" stroke="white" stroke-width="2"/>
</g>
<defs>
<filter id="filter0_d_27_3" x="3.00751" y="26.4747" width="54.5117" height="38.4984" filterUnits="userSpaceOnUse" color-interpolation-filters="sRGB">
<feFlood flood-opacity="0" result="BackgroundImageFix"/>
<feColorMatrix in="SourceAlpha" type="matrix" values="0 0 0 0 0 0 0 0 0 0 0 0 0 0 0 0 0 0 127 0" result="hardAlpha"/>
<feOffset dy="4"/>
<feGaussianBlur stdDeviation="2"/>
<feComposite in2="hardAlpha" operator="out"/>
<feColorMatrix type="matrix" values="0 0 0 0 0 0 0 0 0 0 0 0 0 0 0 0 0 0 0.25 0"/>
<feBlend mode="normal" in2="BackgroundImageFix" result="effect1_dropShadow_27_3"/>
<feBlend mode="normal" in="SourceGraphic" in2="effect1_dropShadow_27_3" result="shape"/>
</filter>
<clipPath id="clip0_27_3">
<rect width="64" height="64" fill="white"/>
</clipPath>
</defs>
</svg>
