<svg width="64" height="64" viewBox="0 0 64 64" fill="none" xmlns="http://www.w3.org/2000/svg">
<g clip-path="url(#clip0_27_3)">
<rect x="7.00793" y="7.00672" width="50" height="50" rx="5" fill="#AA99FD"/>
<path d="M37.8694 35.4488C39.817 33.4913 42.9745 33.4913 44.9221 35.4489L57 47.5878L57 52.0009C56.9998 54.762 54.761 57.0006 51.9999 57.0008L29.913 57.0004L26.6963 53.767C24.7487 51.8094 24.7487 48.6357 26.6964 46.6781L37.8694 35.4488Z" fill="url(#paint0_linear_27_3)"/>
<g filter="url(#filter0_d_27_3)">
<path d="M18.8516 27.9656C20.7681 25.9775 23.8756 25.9775 25.792 27.9657L53.5192 56.7298C53.034 56.8867 52.5166 56.9729 51.9791 56.9729L12.0074 56.9723C9.24615 56.9721 7.00748 54.7335 7.00751 51.9722L7.00768 40.2505L18.8516 27.9656Z" fill="url(#paint1_linear_27_3)"/>
</g>
<ellipse cx="44.4957" cy="17.0037" rx="6.24807" ry="6.24806" fill="white"/>
</g>
<defs>
<filter id="filter0_d_27_3" x="3.00751" y="26.4745" width="54.5117" height="38.4984" filterUnits="userSpaceOnUse" color-interpolation-filters="sRGB">
<feFlood flood-opacity="0" result="BackgroundImageFix"/>
<feColorMatrix in="SourceAlpha" type="matrix" values="0 0 0 0 0 0 0 0 0 0 0 0 0 0 0 0 0 0 127 0" result="hardAlpha"/>
<feOffset dy="4"/>
<feGaussianBlur stdDeviation="2"/>
<feComposite in2="hardAlpha" operator="out"/>
<feColorMatrix type="matrix" values="0 0 0 0 0 0 0 0 0 0 0 0 0 0 0 0 0 0 0.25 0"/>
<feBlend mode="normal" in2="BackgroundImageFix" result="effect1_dropShadow_27_3"/>
<feBlend mode="normal" in="SourceGraphic" in2="effect1_dropShadow_27_3" result="shape"/>
</filter>
<linearGradient id="paint0_linear_27_3" x1="40.7552" y1="32.037" x2="40.7546" y2="68.6378" gradientUnits="userSpaceOnUse">
<stop stop-color="#5078D2"/>
<stop offset="1" stop-color="#20469D"/>
</linearGradient>
<linearGradient id="paint1_linear_27_3" x1="22.4818" y1="24.2527" x2="11.9653" y2="83.5839" gradientUnits="userSpaceOnUse">
<stop stop-color="#195098"/>
<stop offset="1" stop-color="#092347"/>
</linearGradient>
<clipPath id="clip0_27_3">
<rect width="64" height="64" fill="white"/>
</clipPath>
</defs>
</svg>
