<svg width="16" height="16" viewBox="0 0 16 16" fill="none" xmlns="http://www.w3.org/2000/svg">
<path d="M9 4.11738C9 2.80905 10.4128 2.37415 10.8545 3.60566C11.3719 5.04809 11.666 6.70254 11.666 8.4621L11.6572 8.98456C11.6052 10.5485 11.3209 12.0192 10.8555 13.3176C10.4137 14.5498 9 14.1149 9 12.8059C9.00005 12.647 9.02813 12.4892 9.07715 12.3381C9.4467 11.1988 9.66598 9.88424 9.66602 8.4621C9.66596 7.03951 9.44686 5.72484 9.07715 4.58515C9.02813 4.43408 9.00005 4.27619 9 4.11738Z" fill="#B87BBE"/>
<path d="M12.333 3.25196C12.3333 1.86411 13.8602 1.49786 14.2393 2.83301C14.729 4.55895 14.9999 6.46219 15 8.46192L14.9873 9.19336C14.9297 10.9259 14.6678 12.5766 14.2383 14.0908C13.8595 15.4261 12.3334 15.0606 12.333 13.6729C12.333 13.5465 12.3512 13.42 12.3838 13.2979C12.7768 11.8257 13 10.1937 13 8.46192C12.9999 6.73026 12.7769 5.09902 12.3838 3.62696C12.3512 3.50483 12.333 3.37837 12.333 3.25196Z" fill="#B87BBE"/>
<path d="M8 13.9192C8 14.7577 7.03007 15.2238 6.37531 14.7L3.27391 12.2189C3.0966 12.0771 2.87629 11.9998 2.64922 11.9998H2C1.44772 11.9998 1 11.5521 1 10.9998V5.99979C1 5.4475 1.44772 4.99979 2 4.99979H2.64922C2.87629 4.99979 3.0966 4.92251 3.27391 4.78066L6.3753 2.29955C7.03007 1.77573 8 2.24191 8 3.08041V13.9192Z" fill="#D9D9D9"/>
</svg>
