<svg width="16" height="16" viewBox="0 0 16 16" fill="none" xmlns="http://www.w3.org/2000/svg">
<path d="M4.00032 4.67906C4.00032 4.9431 3.91039 5.19739 3.76942 5.42065C3.28229 6.19214 3.00035 7.10597 3.00032 8.08586C3.00032 9.06574 3.28233 9.9796 3.76945 10.7511C3.9104 10.9743 4.00032 11.2286 4.00032 11.4926C4.00032 12.4777 2.91909 12.9976 2.33886 12.2015C1.49714 11.0466 1.00032 9.62455 1.00032 8.08586C1.00035 6.54716 1.49715 5.12505 2.33887 3.97016C2.9191 3.17404 4.00032 3.69394 4.00032 4.67906ZM12.0003 4.67931C12.0003 3.6946 13.0812 3.17493 13.6613 3.97062C14.5032 5.12537 15.0003 6.54725 15.0003 8.08586C15.0003 9.62446 14.5032 11.0463 13.6613 12.2011C13.0812 12.9968 12.0003 12.4771 12.0003 11.4924C12.0003 11.2285 12.0902 10.9744 12.231 10.7513C12.7182 9.97975 13.0003 9.0657 13.0003 8.08586C13.0003 7.10601 12.7182 6.19198 12.2311 5.42045C12.0902 5.19732 12.0003 4.94319 12.0003 4.67931Z" fill="#B87BBE"/>
<circle cx="8" cy="8" r="2" stroke="#D9D9D9" stroke-width="2"/>
</svg>
