<svg width="16" height="16" viewBox="0 0 16 16" fill="none" xmlns="http://www.w3.org/2000/svg">
<g clip-path="url(#clip0_36_25)">
<circle cx="5" cy="11" r="1" fill="#0077FF" fill-opacity="0.5"/>
<path d="M13.793 11.5L10.793 14.5H2.20703L5.20703 11.5H13.793Z" stroke="#6BFF9C" stroke-opacity="0.1"/>
<path d="M4.5 10.793L1.5 13.793V5.20703L4.5 2.20703V10.793Z" stroke="#6BFF9C" stroke-opacity="0.1"/>
<path d="M14.5 1.5V10.5H5.5V1.5H14.5Z" stroke="#6BFF9C" stroke-opacity="0.1"/>
<path d="M8 13L4.5359 7L11.4641 7L8 13Z" fill="#0077FF"/>
<rect x="7" y="3" width="2" height="4" fill="#0077FF"/>
<path d="M10.5 5.5V14.5H1.5V5.5H10.5Z" stroke="#6BFF9C" stroke-opacity="0.25"/>
<path d="M13.793 1.5L10.793 4.5H2.20703L5.20703 1.5H13.793Z" stroke="#6BFF9C" stroke-opacity="0.25"/>
<path d="M14.5 10.793L11.5 13.793V5.20703L14.5 2.20703V10.793Z" stroke="#6BFF9C" stroke-opacity="0.25"/>
<circle cx="1" cy="5" r="1" fill="#0077FF"/>
<circle cx="5" cy="1" r="1" fill="#0077FF"/>
<circle cx="15" cy="1" r="1" fill="#0077FF"/>
<circle cx="15" cy="11" r="1" fill="#0077FF"/>
<circle cx="11" cy="15" r="1" fill="#0077FF"/>
<circle cx="11" cy="5" r="1" fill="#0077FF"/>
<circle cx="1" cy="15" r="1" fill="#0077FF"/>
</g>
<defs>
<clipPath id="clip0_36_25">
<rect width="16" height="16" fill="white"/>
</clipPath>
</defs>
</svg>
