<svg width="16" height="16" viewBox="0 0 16 16" fill="none" xmlns="http://www.w3.org/2000/svg">
<path d="M2 3C2 1.89543 2.89543 1 4 1H9C11.7614 1 14 3.23858 14 6V13C14 14.1046 13.1046 15 12 15H4C2.89543 15 2 14.1046 2 13V3Z" fill="#D9D9D9"/>
<path fill-rule="evenodd" clip-rule="evenodd" d="M7.81347 2.06153C7.91345 1.94053 8.09922 1.94053 8.19921 2.06153L8.39061 2.29297C8.47802 2.39874 8.6347 2.41451 8.7412 2.32813L8.9746 2.1377C9.09624 2.03862 9.27805 2.07482 9.35253 2.21289L9.49511 2.47852C9.56035 2.5993 9.71167 2.64438 9.833 2.58008L10.0976 2.43946C10.2362 2.366 10.4079 2.43703 10.4541 2.58692L10.543 2.875C10.5833 3.00627 10.7219 3.08039 10.8535 3.04102L11.1416 2.95508C11.2917 2.91037 11.4458 3.01316 11.4619 3.16895L11.4922 3.46973C11.5062 3.60626 11.628 3.70622 11.7646 3.69336L12.0644 3.66504C12.2204 3.6505 12.3516 3.7815 12.3369 3.9375L12.3086 4.23828C12.2957 4.37481 12.3949 4.49658 12.5312 4.51075L12.831 4.54102C12.9869 4.55707 13.0897 4.71115 13.0449 4.86133L12.959 5.15137C12.9198 5.28269 12.9932 5.42135 13.124 5.46192L13.4131 5.55078C13.5625 5.59717 13.6326 5.76786 13.5596 5.90625L13.4189 6.17383C13.3549 6.29501 13.4 6.44548 13.5205 6.51075L13.7861 6.6543C13.9239 6.72882 13.9601 6.91065 13.8613 7.03223L13.6709 7.2666C13.5845 7.37301 13.5996 7.52969 13.7051 7.61719L13.9375 7.80957C14.058 7.90954 14.058 8.09534 13.9375 8.19532L13.7051 8.3877C13.5996 8.4752 13.5845 8.63188 13.6709 8.73828L13.8613 8.97266C13.9601 9.09424 13.9239 9.27607 13.7861 9.35059L13.5205 9.49414C13.4001 9.55943 13.3549 9.70989 13.4189 9.83106L13.5596 10.0986C13.6327 10.237 13.5625 10.4077 13.4131 10.4541L13.124 10.543C12.9932 10.5835 12.9198 10.7222 12.959 10.8535L13.0449 11.1436C13.0897 11.2937 12.9869 11.4478 12.831 11.4639L12.5312 11.4941C12.3949 11.5083 12.2957 11.6301 12.3086 11.7666L12.3369 12.0674C12.3516 12.2234 12.2204 12.3544 12.0644 12.3398L11.7646 12.3115C11.628 12.2987 11.5062 12.3986 11.4922 12.5352L11.4619 12.8359C11.4457 12.9917 11.2916 13.0945 11.1416 13.0498L10.8535 12.9639C10.7219 12.9245 10.5833 12.9986 10.543 13.1299L10.4541 13.418C10.4079 13.5678 10.2362 13.6389 10.0976 13.5654L9.833 13.4248C9.71165 13.3605 9.56033 13.4055 9.49511 13.5264L9.35253 13.792C9.27803 13.93 9.09622 13.9662 8.9746 13.8672L8.7412 13.6768C8.6347 13.5903 8.47803 13.6061 8.39061 13.7119L8.19921 13.9434C8.09922 14.0644 7.91345 14.0644 7.81347 13.9434L7.62206 13.7119C7.53455 13.606 7.37799 13.59 7.27147 13.6768L7.03905 13.8672C6.91748 13.9663 6.7357 13.9299 6.66112 13.792L6.51757 13.5264C6.45228 13.4057 6.30192 13.3605 6.18065 13.4248L5.91503 13.5654C5.77653 13.6387 5.60581 13.5676 5.55956 13.418L5.47069 13.1299C5.43034 12.9987 5.29168 12.9246 5.16015 12.9639L4.87206 13.0498C4.72192 13.0947 4.56798 12.9917 4.55175 12.8359L4.5205 12.5352C4.5065 12.3988 4.3855 12.2989 4.24901 12.3115L3.94921 12.3398C3.79312 12.3546 3.66207 12.2235 3.67675 12.0674L3.70507 11.7666C3.71791 11.63 3.61792 11.5082 3.48144 11.4941L3.18261 11.4639C3.02678 11.4478 2.92313 11.2937 2.96776 11.1436L3.05468 10.8535C3.09386 10.7221 3.01971 10.5834 2.88866 10.543L2.60058 10.4541C2.45096 10.4079 2.3801 10.2371 2.45312 10.0986L2.59472 9.83106C2.65874 9.70983 2.61276 9.55937 2.49218 9.49414L2.22655 9.35059C2.08894 9.27602 2.05269 9.09419 2.15136 8.97266L2.34276 8.73828C2.42917 8.63188 2.41312 8.4752 2.30761 8.3877L2.07519 8.19434C1.95494 8.09431 1.95474 7.90946 2.07519 7.80957L2.30761 7.61719C2.41312 7.52969 2.42917 7.37301 2.34276 7.2666L2.15136 7.03223C2.05267 6.91071 2.08896 6.72889 2.22655 6.6543L2.49218 6.51075C2.61276 6.44551 2.65874 6.29506 2.59472 6.17383L2.45312 5.90625C2.38003 5.76776 2.45095 5.597 2.60058 5.55078L2.88866 5.46192C3.01971 5.42148 3.09386 5.2828 3.05468 5.15137L2.96776 4.86133C2.92306 4.71118 3.02675 4.55707 3.18261 4.54102L3.48144 4.51075C3.61791 4.49669 3.7179 4.37488 3.70507 4.23828L3.67675 3.9375C3.66207 3.78141 3.79312 3.65031 3.94921 3.66504L4.24901 3.69336C4.38548 3.70599 4.50649 3.60612 4.5205 3.46973L4.55175 3.16895C4.56792 3.01308 4.72189 2.91014 4.87206 2.95508L5.16015 3.04102C5.29167 3.08029 5.43035 3.00622 5.47069 2.875L5.55956 2.58692C5.60577 2.43717 5.7765 2.36618 5.91503 2.43946L6.18065 2.58008C6.3019 2.64434 6.45225 2.59912 6.51757 2.47852L6.66112 2.21289C6.73567 2.07493 6.91746 2.0386 7.03905 2.1377L7.27147 2.32813C7.37798 2.41482 7.53456 2.39883 7.62206 2.29297L7.81347 2.06153ZM8.0039 3.41211C5.54382 3.41211 3.54895 5.41044 3.54882 7.875C3.54882 10.3397 5.54374 12.3379 8.0039 12.3379C10.4639 12.3377 12.458 10.3396 12.458 7.875C12.4579 5.41053 10.4638 3.41226 8.0039 3.41211Z" fill="#DE4C36"/>
<path d="M4.03271 12V10.9844H5.04834V5.14453H4.03271V4.12891H7.3335C8.10156 4.12891 8.70353 4.15324 9.1394 4.2019C9.57739 4.25057 9.91805 4.32674 10.1614 4.43042C10.4068 4.53198 10.6322 4.68538 10.8374 4.89062C11.0215 5.07471 11.1601 5.3064 11.2532 5.58569C11.3484 5.86287 11.396 6.16016 11.396 6.47754C11.396 7.46566 10.9189 8.16178 9.9646 8.56592C10.3137 8.86426 10.5369 9.33187 10.6343 9.96875C10.6449 10.0365 10.6576 10.1243 10.6724 10.2322C10.6872 10.338 10.6988 10.4205 10.7073 10.4797C10.7157 10.5369 10.7274 10.6056 10.7422 10.686C10.757 10.7643 10.7708 10.8246 10.7834 10.8669C10.7961 10.9093 10.812 10.9516 10.8311 10.9939C10.8501 11.0362 10.8713 11.0669 10.8945 11.0859C10.9199 11.1029 10.9474 11.1113 10.9771 11.1113C11.0426 11.1113 11.0987 11.0817 11.1453 11.0225C11.1939 10.9632 11.2331 10.8754 11.2627 10.759C11.2923 10.6405 11.3145 10.5326 11.3293 10.4353C11.3442 10.338 11.3611 10.211 11.3801 10.0544C11.3844 10.0164 11.3875 9.98779 11.3896 9.96875L12.2847 10.0608C12.2635 10.266 12.2445 10.4258 12.2275 10.54C12.2127 10.6543 12.1873 10.7961 12.1514 10.9653C12.1154 11.1346 12.0741 11.2658 12.0276 11.3589C11.981 11.452 11.9165 11.5557 11.834 11.6699C11.7536 11.7821 11.6594 11.8667 11.5515 11.9238C11.4436 11.9788 11.3103 12.0264 11.1516 12.0667C10.995 12.1069 10.8173 12.127 10.6184 12.127C10.4745 12.127 10.3423 12.1206 10.2217 12.1079C10.1011 12.0952 9.98893 12.0741 9.88525 12.0444C9.78369 12.0148 9.69059 11.982 9.60596 11.946C9.52132 11.9101 9.44198 11.8614 9.36792 11.8C9.29386 11.7387 9.22721 11.6773 9.16797 11.616C9.11084 11.5525 9.05477 11.4731 8.99976 11.3779C8.94474 11.2827 8.89608 11.1907 8.85376 11.1018C8.81356 11.0108 8.77018 10.9008 8.72363 10.7717C8.67708 10.6405 8.63582 10.5157 8.59985 10.3972C8.56388 10.2787 8.52262 10.1359 8.47607 9.96875C8.41895 9.76562 8.36499 9.60588 8.31421 9.4895C8.26554 9.37101 8.20312 9.26839 8.12695 9.18164C8.05078 9.09489 7.9598 9.03564 7.854 9.00391C7.75033 8.97005 7.61914 8.95312 7.46045 8.95312H7.07959V10.9844H8.09521V12H4.03271ZM7.07959 7.9375H7.5874C8.60303 7.9375 9.11084 7.47201 9.11084 6.54102C9.11084 6.38021 9.0992 6.23421 9.07593 6.10303C9.05477 5.97184 9.01457 5.84489 8.95532 5.72217C8.89608 5.59945 8.81991 5.49683 8.72681 5.41431C8.63371 5.33179 8.51204 5.26619 8.36182 5.21753C8.21159 5.16886 8.03809 5.14453 7.84131 5.14453H7.07959V7.9375Z" fill="#DE4C36"/>
</svg>
